<svg width="15" height="14" viewBox="0 0 15 14" fill="none" xmlns="http://www.w3.org/2000/svg">
    <path d="M1.82048 10.869L2.48241 12.0078L7.49944 9.48686L12.5165 12.0078L13.1855 10.869L8.16712 8.3469V2.40719H6.8388V8.3469L1.82048 10.869ZM0.0858677 11.9395C-0.132355 12.4406 0.0737129 12.7886 0.609071 12.8508L3.50732 13.1714C4.23799 13.2596 4.66046 12.7796 4.27794 12.1225L2.55003 9.12646C2.18274 8.48448 1.54931 8.60322 1.26389 9.26923L0.0858677 11.9395ZM14.9144 11.9395L13.742 9.26923C13.4509 8.60322 12.8232 8.48448 12.4547 9.12646L10.721 12.1225C10.3397 12.7796 10.768 13.2596 11.4929 13.1714L14.3911 12.8508C14.9252 12.7886 15.1325 12.4406 14.9144 11.9395ZM6.96803 0.332941L5.2478 2.67431C4.81205 3.26164 5.0205 3.87426 5.7703 3.87426H9.22041C9.98417 3.87426 10.1837 3.2724 9.74413 2.67556L8.01822 0.331684C7.68834 -0.108534 7.29659 -0.113005 6.96803 0.332941Z" fill="#EBEBF5" fill-opacity="0.3"/>
</svg>
