<svg width="16" height="13" viewBox="0 0 16 13" fill="none" xmlns="http://www.w3.org/2000/svg">
    <path d="M2.90224 3.80153C3.04533 3.13905 3.34425 2.25689 3.54415 1.90062C3.73529 1.55286 3.95284 1.40512 4.35901 1.3515C4.83473 1.28872 5.96895 1.24704 7.99938 1.24704C10.0353 1.24704 11.1707 1.27664 11.6422 1.3515C12.046 1.41057 12.2581 1.55286 12.4558 1.90062C12.66 2.25144 12.945 3.13905 13.1032 3.80153C13.1713 4.08412 13.0484 4.21167 12.7544 4.19959C11.7279 4.13734 10.4354 4.07217 7.99938 4.07217C5.57127 4.07217 4.2787 4.13734 3.25107 4.19959C2.95162 4.21167 2.83295 4.08412 2.90224 3.80153ZM3.14502 8.86615C2.51718 8.86615 2.03469 8.38488 2.03469 7.75704C2.03469 7.12377 2.51718 6.64668 3.14502 6.64668C3.77285 6.64668 4.25415 7.12377 4.25415 7.75704C4.25415 8.38488 3.77285 8.86615 3.14502 8.86615ZM6.21146 8.58633C5.73681 8.58633 5.40934 8.25887 5.40934 7.78423C5.40934 7.31383 5.73681 6.98637 6.21146 6.98637H9.79279C10.2632 6.98637 10.5906 7.31383 10.5906 7.78423C10.5906 8.25887 10.2632 8.58633 9.79279 8.58633H6.21146ZM12.855 8.86615C12.2271 8.86615 11.7501 8.38488 11.7501 7.75704C11.7501 7.12377 12.2271 6.64668 12.855 6.64668C13.4882 6.64668 13.9653 7.12377 13.9653 7.75704C13.9653 8.38488 13.4882 8.86615 12.855 8.86615ZM7.99938 10.713C10.2664 10.713 13.2402 10.6002 14.4981 10.4542C15.458 10.3451 16 9.80191 16 8.8939V7.76763C16 6.60064 15.7839 5.9553 15.1649 5.14932L14.5769 4.41157C14.3356 3.21696 13.8922 1.96381 13.6641 1.4715C13.2938 0.690488 12.5827 0.223127 11.6666 0.100082C11.1908 0.0355728 9.76493 0 7.99938 0C6.24051 0 4.81455 0.041015 4.33883 0.100082C3.4215 0.212243 2.70619 0.690488 2.34131 1.4715C2.10783 1.96381 1.66981 3.21696 1.42185 4.41157L0.839281 5.14932C0.216093 5.9553 0 6.60064 0 7.76763V8.8939C0 9.80191 0.547397 10.3463 1.50189 10.4542C2.76526 10.599 5.73364 10.713 7.99938 10.713ZM0.899409 12.5883H1.69383C2.19995 12.5883 2.59324 12.1962 2.59324 11.6943V10.0083L0 8.72281V11.6943C0 12.1962 0.393293 12.5883 0.899409 12.5883ZM14.3061 12.5883H15.106C15.6121 12.5883 16 12.1962 16 11.6943V8.72281L13.4122 10.0083V11.6943C13.4122 12.1962 13.8 12.5883 14.3061 12.5883Z" fill="#9D00FF" fill-opacity="0.3"/>
</svg>
