<svg width="62" height="62" viewBox="0 0 62 62" fill="none" xmlns="http://www.w3.org/2000/svg">
    <g opacity="0.5" filter="url(#filter0_f_0_1)">
        <circle cx="31" cy="31" r="11" fill="url(#paint0_linear_0_1)"/>
    </g>
    <path d="M25.9022 28.8015C26.0453 28.139 26.3443 27.2569 26.5442 26.9006C26.7353 26.5529 26.9528 26.4051 27.359 26.3515C27.8347 26.2887 28.969 26.247 30.9994 26.247C33.0353 26.247 34.1707 26.2766 34.6422 26.3515C35.046 26.4106 35.2581 26.5529 35.4558 26.9006C35.66 27.2514 35.945 28.139 36.1032 28.8015C36.1713 29.0841 36.0484 29.2117 35.7544 29.1996C34.7279 29.1373 33.4354 29.0722 30.9994 29.0722C28.5713 29.0722 27.2787 29.1373 26.2511 29.1996C25.9516 29.2117 25.833 29.0841 25.9022 28.8015ZM26.145 33.8662C25.5172 33.8662 25.0347 33.3849 25.0347 32.757C25.0347 32.1238 25.5172 31.6467 26.145 31.6467C26.7729 31.6467 27.2541 32.1238 27.2541 32.757C27.2541 33.3849 26.7729 33.8662 26.145 33.8662ZM29.2115 33.5863C28.7368 33.5863 28.4093 33.2589 28.4093 32.7842C28.4093 32.3138 28.7368 31.9864 29.2115 31.9864H32.7928C33.2632 31.9864 33.5906 32.3138 33.5906 32.7842C33.5906 33.2589 33.2632 33.5863 32.7928 33.5863H29.2115ZM35.855 33.8662C35.2271 33.8662 34.7501 33.3849 34.7501 32.757C34.7501 32.1238 35.2271 31.6467 35.855 31.6467C36.4882 31.6467 36.9653 32.1238 36.9653 32.757C36.9653 33.3849 36.4882 33.8662 35.855 33.8662ZM30.9994 35.713C33.2664 35.713 36.2402 35.6002 37.4981 35.4542C38.458 35.3451 39 34.8019 39 33.8939V32.7676C39 31.6006 38.7839 30.9553 38.1649 30.1493L37.5769 29.4116C37.3356 28.217 36.8922 26.9638 36.6641 26.4715C36.2938 25.6905 35.5827 25.2231 34.6666 25.1001C34.1908 25.0356 32.7649 25 30.9994 25C29.2405 25 27.8146 25.041 27.3388 25.1001C26.4215 25.2122 25.7062 25.6905 25.3413 26.4715C25.1078 26.9638 24.6698 28.217 24.4219 29.4116L23.8393 30.1493C23.2161 30.9553 23 31.6006 23 32.7676V33.8939C23 34.8019 23.5474 35.3463 24.5019 35.4542C25.7653 35.599 28.7336 35.713 30.9994 35.713ZM23.8994 37.5883H24.6938C25.1999 37.5883 25.5932 37.1962 25.5932 36.6943V35.0083L23 33.7228V36.6943C23 37.1962 23.3933 37.5883 23.8994 37.5883ZM37.3061 37.5883H38.106C38.6121 37.5883 39 37.1962 39 36.6943V33.7228L36.4122 35.0083V36.6943C36.4122 37.1962 36.8 37.5883 37.3061 37.5883Z" fill="#EBEBF5" fill-opacity="0.3"/>
    <defs>
        <filter id="filter0_f_0_1" x="0" y="0" width="62" height="62" filterUnits="userSpaceOnUse" color-interpolation-filters="sRGB">
            <feFlood flood-opacity="0" result="BackgroundImageFix"/>
            <feBlend mode="normal" in="SourceGraphic" in2="BackgroundImageFix" result="shape"/>
            <feGaussianBlur stdDeviation="10" result="effect1_foregroundBlur_0_1"/>
        </filter>
        <linearGradient id="paint0_linear_0_1" x1="31" y1="20" x2="31" y2="42" gradientUnits="userSpaceOnUse">
            <stop stop-color="#D243E5"/>
            <stop offset="1" stop-color="#9D00FF"/>
        </linearGradient>
    </defs>
</svg>
